# xmcd CD database file
#
# Track frame offsets:
#	150
#	14385
#	28388
#	42410
#	57540
#	73040
#	88943
#	102666
#	115246
#	128951
#	142516
#	154971
#	169033
#	181881
#	195736
#	210691
#	225448
#	239236
#	252443
#	267386
#	279336
#	293556
#	308031
#	323168
#	335063
#
# Disc length: 4657 seconds
#
# Revision: 0
# Processed by: cddbd v1.5.1PL0 Copyright (c) Steve Scherf et al.
# Submitted via: CDex 1.51
#
DISCID=80122f19
DTITLE=Various Artist - Kansas City Jazz
DYEAR=1900
DGENRE=Jazz
TTITLE0=20 - The Kansas City Tin Roof Stompers-Aunt Jemima Stomp
TTITLE1=01 - Walter Page's Blue Devils-Squabblin'
TTITLE2=02 - Benny Moten's Kansas City Orchestra-Get Low-Down Blues
TTITLE3=03 - Benny Moten's Kansas City Orchestra-Won't You Be My Baby
TTITLE4=Jazz Cafe - Swingtime - Bennie Moten's Kansas City Orchestra-Moten Swing
TTITLE5=04 - Benny Moten's Kansas City Orchestra-Toby
TTITLE6=21 - Bennie Moten's Kansas City Orchestra-Midnight Mama
TTITLE7=05 - George E Lee and His Orchestra-Paseo Strut
TTITLE8=06 - Julia Lee-Come On Over To My House
TTITLE9=07 - Joe Turner-Johnson and Turner Blues
TTITLE10=08 - Andy Kirk and His 12 Clouds of Joy-The Lady Who Swings The Band
TTITLE11=09 - Andy Kirk and His 12 Clouds of Joy-Twinklin'
TTITLE12=10 - Mary Lou Williams and Her Kansas City Seven-Baby Dear
TTITLE13=11 - Jay McShann and His Orchestra-The Jumpin' Blues
TTITLE14=12 - Jones-Smith Inc-Boogie-Woogie
TTITLE15=13 - 'Hot Lips' Page-Gone with the Gin
TTITLE16=14 - The Kansas City Six-Pagin' the Devil
TTITLE17=15 - Sam Price and His Texas Bluesicians-Just Jivin' Around
TTITLE18=16 - Count Basie and His Orchestra-Topsy
TTITLE19=17 - Count Basie and His Orchestra-Roseland Shuffle
TTITLE20=Jazz Cafe - Swingtime - Count Basie and his Orchestra-Robbins
TTITLE21=Ken Burns Jazz - Count Basie and His Orchestra-Jumpin' At the Woodside
TTITLE22=18 - Harlan Leonard's Rockets-A-La-Bridges
TTITLE23=19 - Eddie Durham and His Band-Moten's Swing
TTITLE24=21 - The Charlie Parker Quintet-Billie's Bounce
EXTD=
EXTT0=
EXTT1=
EXTT2=
EXTT3=
EXTT4=
EXTT5=
EXTT6=
EXTT7=
EXTT8=
EXTT9=
EXTT10=
EXTT11=
EXTT12=
EXTT13=
EXTT14=
EXTT15=
EXTT16=
EXTT17=
EXTT18=
EXTT19=
EXTT20=
EXTT21=
EXTT22=
EXTT23=
EXTT24=
PLAYORDER=
